<?xml version="1.0" encoding="iso-8859-1"?>
<!-- Generator: Adobe Illustrator 21.1.0, SVG Export Plug-In . SVG Version: 6.00 Build 0)  -->
<svg version="1.1" id="Layer_1" xmlns="http://www.w3.org/2000/svg" xmlns:xlink="http://www.w3.org/1999/xlink" x="0px" y="0px"
	 viewBox="0 0 300 81.25" style="enable-background:new 0 0 300 81.25;" xml:space="preserve">
<path style="fill:#64D7DA;" d="M299.107,79.919V49.625c0-15.802-6.876-27.595-23.098-27.595c-18.191,0-24.625,16.477-24.625,28.175
	l8.401-0.579c0-6.994,4.568-11.255,10.588-11.255c5.71,0,10.591,3.919,10.591,11.255v30.294H299.107z"/>
<path style="fill:#00A0A0;" d="M97.789,79.919V49.625c0-17.208-8.477-27.595-24.621-27.595c-16.376,0-24.39,11.665-29.384,23.511
	l14.684,4.084c0-6.994,4.568-11.255,10.588-11.255c5.71,0,10.591,3.919,10.591,11.255v30.294H97.789z"/>
<rect x="241.643" y="1.042" style="fill:#14C378;" width="18.143" height="78.878"/>
<path style="fill:#14C378;" d="M151.105,51.324c0,7.83-4.959,14.177-12.802,14.177c-7.07,0-12.802-6.347-12.802-14.177
	c0-7.83,5.731-14.177,12.802-14.177C146.146,37.147,151.105,43.495,151.105,51.324 M158.418,51.377
	c0-17.868-7.814-29.373-23.368-29.373c-17.11,0-27.762,13.151-27.762,29.373S117.94,80.75,135.05,80.75
	C150.627,80.75,158.418,69.199,158.418,51.377"/>
<rect x="151.105" y="22.835" style="fill:#64D7DA;" width="18.143" height="57.085"/>
<path style="fill:#14C378;" d="M58.468,79.919V49.625c0-15.802-6.876-27.595-23.098-27.595c-18.191,0-24.625,16.477-24.625,28.175
	l8.401-0.579c0-6.994,4.568-11.255,10.588-11.255c5.71,0,10.591,3.919,10.591,11.255v30.294H58.468z"/>
<rect x="1.004" y="22.835" style="fill:#64D7DA;" width="18.143" height="57.085"/>
<path style="fill:#00A0A0;" d="M205.682,80.75c-12.77,0-24.593-6.869-24.593-6.869l6.132-13.008c0,0,10.986,5.714,19.28,5.714
	c3.596,0,5.788-1.151,5.788-3.309c0-2.614-4.013-3.624-9.094-4.904c-8.424-2.122-19.96-5.352-19.96-18.075
	c0-11.113,9.151-18.295,23.311-18.295c12.45,0,23.019,6.639,23.019,6.639l-5.733,12.439c0,0-10.309-5.05-18.017-5.05
	c-3.251,0-5.116,1.255-5.116,3.444c0,2.263,3.912,3.272,8.866,4.55c8.74,2.254,20.71,5.341,20.71,18.325
	C230.275,73.938,220.921,80.75,205.682,80.75"/>
</svg>
